<svg xmlns="http://www.w3.org/2000/svg" height="100.332" width="203.221"><path d="M126.332 30.168l-.045-.016v.04z" fill="#85c3e9"/><path d="M144.781 72.757c-9.847.965-19.147 1.874-20.262 5.318a3.454 3.454 0 00.111 3.131c1.33 2.228 5.463 3.266 6.983 3.484 2.013.118 3.857.181 5.515.184h.164c29.532 0 57.284-16.116 60.6-29.5 1.206-4.861-.927-8.91-6.254-12.075.705 2.342.8 5.818-1.366 10.678-7.259 15.036-28.457 17.113-45.491 18.78z" fill="#94a727"/><path d="M111.683 51.148a351.169 351.169 0 01-9.333-3.214c-11.006 3.023-26.748 13.8-31.577 17.228 1.033.674 2.084 1.339 3.158 1.986 3.674-1.876 22.942-11.558 37.752-16zM122.771 54.361a133.596 133.596 0 01-6.833-1.875c-13.383 3.324-33.242 12.979-39.514 16.118q1.675.954 3.371 1.857c3.981-1.671 27.87-11.614 42.976-16.1zM98.617 46.59l-1.275-.461Q94.357 45.048 91.426 44c-14.885 6.15-22.891 15.51-24.942 18.162q1.044.786 2.146 1.554c3.516-2.542 18.175-12.86 29.987-17.126zM88.065 42.82q-3.1-1.07-6.048-1.993c-10 4.914-16.768 15.889-18.5 18.937.346.3.7.6 1.058.9 2.121-2.774 9.581-11.495 23.49-17.844zM78.737 39.851A68.224 68.224 0 0070.52 38c-8.587 6.682-11.575 14.226-12.243 16.217a29.944 29.944 0 003.405 3.867c2.03-3.514 8.03-12.866 17.055-18.233zM56.885 41.51a9.357 9.357 0 00-.906 8.506 14.139 14.139 0 00.692 1.6 38.926 38.926 0 0110.485-13.993c-4.745-.245-8.367.798-10.271 3.887z" fill="#fff"/><path d="M21.885 17.973c1.626 1.486 3.163 2.89 3.761 4.43.157.407.345 1.014.574 1.76 1.232 4.032 3.8 12.423 10.307 13.993 6.157 1.486 14.584-3.235 25.06-14.032a14.769 14.769 0 016.784-4.036c-4.076-2.1-6.131-4.543-6.064-7.288 0-.031.012-.06.013-.091-2.835 3.313-6.1 6.454-12.188 7.539-7.183 1.279-12.626-3.491-17.431-7.7-3.86-3.382-7.35-6.439-11.316-6.439a7.791 7.791 0 00-.785.064c-2.125 1.826-3.237 3.553-3.277 5.135-.062 2.439 2.394 4.682 4.562 6.665zM14.023 66.39c.624.047 3.393.1 3.965-2.653.32-1.529-3.958-5.979-7.082-9.227a80.769 80.769 0 01-7.03-7.962 43.727 43.727 0 00.836 10.864c.916 3.878 4.411 6.778 9.311 8.978z" fill="#94a727"/><path d="M137.297 87.29h-.175c-1.7 0-3.589-.068-5.65-.19a1.087 1.087 0 01-.16-.01h-.006c-14.016-.841-36.124-4.341-63.384-10.07a104.586 104.586 0 00-10.675-.955C39.592 74.935 11.029 73.1 3.779 61.333c-1.548 6.64-1.176 13.3 1.126 17.971C10.168 89.991 46.97 90.39 64.656 90.581c4.8.052 8.589.093 10.866.281 3.053.249 7 1.008 12 1.968 13.8 2.653 34.644 6.66 59.362 3.9 23.414-2.617 47.538-20.841 52.666-34.771a12.311 12.311 0 00.793-6.486c-.033.159-.057.317-.1.477-3.597 14.521-31.86 31.34-62.946 31.34z" fill="#fff"/><path d="M136.123 32.763c0 .751-.008 1.63-.019 2.6a37.155 37.155 0 013.418-1.9c-1.135-.228-2.268-.451-3.399-.7zM144.858 39.552a29.662 29.662 0 01-.809-5.266l-.189-.032a33.718 33.718 0 00-7.8 4.047c-.053 2.6-.148 5.41-.311 7.753 1.839-2.152 5.291-5.607 9.109-6.502zM123.859 41.852c.088-2.4.1-5.031.078-7.415a89.028 89.028 0 00-5.908 4.242 273.911 273.911 0 005.83 3.173zM133.305 46.381c.13-1.755.225-3.934.289-6.241a43.119 43.119 0 00-4.588 4.3 93.724 93.724 0 004.299 1.941zM133.66 37.013c.028-1.663.042-3.3.044-4.826q-2-.482-3.968-1.033a37.983 37.983 0 00-3.393 1.788c.046 3.094.048 6.893-.113 10.136l.5.253a44.218 44.218 0 016.93-6.318zM113.889 25.064l-.161 2.316q1.068-.7 2.147-1.351c-.67-.318-1.337-.634-1.986-.965z" fill="#abb833"/><path d="M137.338 47.917c4.706 1.586 8.923 2.225 12.3 1.295a10.16 10.16 0 006.287-5.145 4.941 4.941 0 00.606-4.027c-.761-2.477-3.491-4.112-4.188-4.495a271.17 271.17 0 01-5.846-.852 29.283 29.283 0 001.041 5.5 1.209 1.209 0 01-1.1 1.567c-3.398.162-7.113 3.776-9.1 6.157zM70.594 18.49a1.2 1.2 0 01.7 1.057c3.963-.388 8.4.437 13.121 2.025a51.179 51.179 0 018.484-5.871 67.79 67.79 0 00-.019-4.371c-6.563-4.874-11.8-8.608-16.181-8.234-3.454 1.4-11.872 5.675-11.97 9.764-.06 2.43 3.157 4.4 5.865 5.63zM92.005 24.615a57.262 57.262 0 00.747-6.056 49.649 49.649 0 00-5.671 3.973 84.969 84.969 0 014.924 2.083zM123.895 31.59c-.017-.865-.036-1.634-.054-2.29-.783-.274-1.579-.524-2.35-.821-1-.385-1.956-.806-2.919-1.223-1.668.951-3.4 2.058-5.057 3.183l-.381 5.479q1.3.741 2.6 1.475a89.225 89.225 0 018.161-5.803zM111.182 29.09l.367-5.274c-.81-.443-1.62-.884-2.4-1.34-1.1.988-2.325 2.045-3.591 3.112l-.909 5.528q1.054.586 2.111 1.181a149.787 149.787 0 014.422-3.207zM110.965 32.217c-.673.483-1.308.948-1.9 1.386l1.733.984zM106.348 20.785l-.18 1.094c.279-.242.543-.477.81-.713-.207-.128-.425-.253-.63-.381zM96.471 13.99c-.382-.281-.743-.55-1.116-.826v1.315c.371-.166.74-.334 1.116-.489zM102.715 27.95q-.784.643-1.551 1.263.617.331 1.233.668zM103.314 24.31l.816-4.961a154.816 154.816 0 01-5.308-3.652 30.564 30.564 0 00-3.538 1.5 59.894 59.894 0 01-.993 8.495q2.253 1.087 4.543 2.288a364.359 364.359 0 004.48-3.67z" fill="#abb833"/><path d="M158.073 45.172c0 .008 0 .017-.007.025s-.022.039-.032.059v.011c-5.521 11.174-16.889 12.629-30.117 10.2-12.568 3.07-37.506 13.221-45.315 16.456a207.828 207.828 0 0021.987 9.522c7.265 1.159 13.743 2.03 19.351 2.607a6.653 6.653 0 01-1.38-1.6 5.758 5.758 0 01-.322-5.17c1.586-4.906 10.733-5.8 22.313-6.936 16.431-1.608 36.879-3.611 43.534-17.392 3.406-7.657.41-10.934-.209-11.5-6.241-2.381-15.286-3.456-25.551-4.673-1.756-.208-3.548-.422-5.359-.645a8.606 8.606 0 011.88 3.181 7.293 7.293 0 01-.773 5.855z" fill="#cedd3e"/><path d="M52.162 64.972c7.218 4.077 12.128 6.871 13.872 9.335.952.1 1.768.217 2.386.346a862.258 862.258 0 0024.564 4.811 152.169 152.169 0 01-24.779-13.1 1.171 1.171 0 01-.567-.383 63.723 63.723 0 01-6.525-5.138c-.017-.018-.041-.031-.057-.051a33.842 33.842 0 01-5.087-5.676 1.1 1.1 0 01-.085-.127 18.368 18.368 0 01-2.188-4.162 11.8 11.8 0 011.127-10.586c6.1-9.887 23.358-3.632 43.344 3.612 18.1 6.558 38.088 13.8 49.99 8.1a17.188 17.188 0 01-2.012.121 32.48 32.48 0 01-10.807-2.275 7.375 7.375 0 01-.217.931 1.212 1.212 0 01-2.3-.763 6.9 6.9 0 00.22-1.052q-2.772-1.128-5.689-2.552c-.361.452-.568.738-.579.753a1.207 1.207 0 01-.972.508c-.047.285-.094.571-.149.813a1.21 1.21 0 01-1.179.945 1.3 1.3 0 01-.268-.029 1.212 1.212 0 01-.914-1.447 25.008 25.008 0 00.425-3.382 276.26 276.26 0 01-7.739-4.213c-1.612 1.314-2.65 2.23-2.685 2.26a1.173 1.173 0 01-.643.278l-.186 2.675a1.209 1.209 0 01-1.206 1.126h-.085a1.211 1.211 0 01-1.124-1.292l.563-8.085q-1.822-1.039-3.651-2.074c-1.08.831-1.744 1.366-1.77 1.387a1.207 1.207 0 01-.761.27 1.2 1.2 0 01-.686-.25l-.369 2.244a1.211 1.211 0 01-1.193 1.014 1.235 1.235 0 01-.2-.016 1.211 1.211 0 01-1-1.391l.994-6.04q-1.44-.789-2.869-1.55a417.986 417.986 0 01-5.334 4.188 1.211 1.211 0 01-1.7-.223 1.191 1.191 0 01-.176-1.088c-.136.328-.259.661-.406.984a1.21 1.21 0 11-2.2-1 36.071 36.071 0 002.216-6.67c-2.234-1.035-4.421-1.957-6.542-2.726a62.7 62.7 0 00-6.446 6.54 1.211 1.211 0 01-1.884-1.522 61.129 61.129 0 015.664-5.913c-7.734-2.368-14.417-2.32-18.979 2.38-11.113 11.458-20.318 16.4-27.365 14.7-7.854-1.9-10.692-11.179-12.055-15.639-.207-.675-.372-1.224-.516-1.593-.392-1.011-1.724-2.228-3.136-3.518-2.549-2.33-5.44-4.97-5.349-8.514a6.89 6.89 0 01.868-3.082c-3.013 2.278-5.684 7.519-7.73 13.934 3.84 20.097 28.064 33.79 44.126 42.867z" fill="#cedd3e"/><path d="M20.359 64.236a5.367 5.367 0 01-2.5 3.656c11.746 3.979 28.613 5.061 39.546 5.76 1.781.114 3.42.22 4.9.328a112.641 112.641 0 00-11.326-6.9C35.617 58.401 12.971 45.596 6.742 26.675a96.843 96.843 0 00-2.608 15.529c1.184 2.989 5.072 7.043 8.524 10.633 5.131 5.342 8.253 8.753 7.701 11.399zM104.67 33.904c-.146-.082-.293-.165-.44-.246l-.113.682.553-.436zM92.305 33.129c.047-.037 1.912-1.472 4.464-3.5q-1.515-.781-3.01-1.511a39.808 39.808 0 01-1.732 5.33 1.185 1.185 0 01.278-.319zM112.947 38.595l-.079 1.143c.248-.212.529-.447.845-.71z" fill="#cedd3e"/><g fill="none" stroke="#3e4147" stroke-linecap="round" stroke-linejoin="round" stroke-width="2.923"><path d="M3.535 57.69c-2.79 8.4-2.4 16.7.283 22.148 6.943 14.095 60.12 11.288 71.6 12.228s37.945 9.625 71.6 5.864c31.075-3.473 64.2-34.526 52.17-47.341"/><path d="M3.535 57.69c4.2 17.764 55.6 16.246 64.636 18.143s48.688 10.2 68.954 10.246c41.279.084 79.745-30.959 53.964-44.52-13.344-7.019-44.581-4.754-69.163-14.217-22.912-8.82-35.472-26.532-45.5-25.45-14.251 1.538-13.031 14.76-26.5 17.159-14.3 2.548-21.158-21.017-34.435-12.191C6.029 13.15.384 44.362 3.535 57.69z"/><path d="M20.139 4.969c-10.5 8.652 2.642 13.393 4.379 17.872s6.918 34.1 37.937 2.126c20.862-21.507 79.589 46.04 94.524 19.7 3.641-6.423-4.265-10.292-4.265-10.292M76.425 1.897s-24.2 9.589-6.33 17.694M2.912 42.452c2.5 6.788 17.122 17.41 16.262 21.536s-5.411 3.6-5.411 3.6M6.781 21.998c5.4 30.084 54.843 46.022 58.577 53.455"/><path d="M156.979 44.664c-16.3 33.269-88.547-24.178-101.124-3.789s48.455 41.754 48.455 41.754"/><path d="M131.478 85.896s-10.6-1.471-8.111-8.2c3.4-10.493 54.216-.229 65.8-24.22 4.2-9.439-.671-13.082-.671-13.082M56.944 54.425s2.456-9.528 13.251-17.716M61.991 60.023s7.541-14.685 19.918-20.506M64.928 62.22s8.225-12.132 26.456-19.523M68.59 65.24s20.357-15.053 33.8-18.577M73.89 68.53s25.771-13.339 42.068-17.3M79.729 71.803s32.991-13.93 48.108-17.568M77.582 30.103s10.883-13.478 23.606-16.36M93.897 8.29s1.627 14.654-3.5 25.931M93.04 34.09s12.4-9.532 17.531-14.6M105.721 17.134l-3.54 21.513M104.432 35.639s10.257-8.3 17-11.2M112.856 22.471l-1.599 22.965M112.488 41.665s12.262-10.934 20.269-12.893M124.981 27.09s.638 15.987-.507 21.08M125.785 46.415s6.709-9.52 17.923-13.4M134.914 30.39s.073 16.9-.942 19.96M135.346 48.509s5.437-7.694 11.037-7.956c0 0-1.8-5.8-.908-9.9"/></g></svg>
