<?xml version="1.0" encoding="UTF-8" standalone="no"?>
<svg
   xmlns="http://www.w3.org/2000/svg"
   xmlns:xlink="http://www.w3.org/1999/xlink"
   viewBox="0, 0, 200, 100"
   version="1.1" >

  <defs>
    <path id="MyPath" d="m 50,50 c 50,0  100,0 85,15" />
    <path id="MyPath_Stroke"
	  d="m 50,70 c 12.5,0 24.89,0 36.08,0.23 11.18,0.23 21.22,0.7 28.62,1.52 3.6,0.41 6.7,0.92 8.5,1.37 1.9,0.45 2.7,1.07 1.2,0.15 -0.7,-0.47 -2.1,-1.42 -3.7,-3.58 -1.5,-2.17 -2.9,-5.81 -3,-9.23 -0.1,-3.43 1,-6.14 1.8,-7.61 0.8,-1.47 1.3,-1.95 1.4,-1.99 l 28.2,28.28 c 2,-1.92 3.9,-4.15 5.6,-7.27 1.6,-3.12 3.1,-7.37 3,-12.23 -0.1,-4.86 -2,-9.83 -4.4,-13.24 -2.5,-3.4 -5.2,-5.49 -7.6,-7.01 -4.8,-3.03 -8.9,-4.17 -13.2,-5.18 -4.3,-1.02 -8.7,-1.68 -13.4,-2.21 -9.5,-1.06 -20.43,-1.52 -32.21,-1.76 -11.78,-0.24 -24.39,-0.24 -36.89,-0.24 l 0,40 z" />
    <path id="MyPath_Offset"
	  d="m 50,70 c 12.5,0 24.89,0 36.08,0.23 11.18,0.23 21.22,0.7 28.62,1.52 3.6,0.41 6.7,0.92 8.5,1.37 1.9,0.45 2.7,1.07 1.2,0.15 -0.7,-0.47 -2.1,-1.42 -3.7,-3.58 -1.5,-2.17 -2.9,-5.81 -3,-9.23 -0.1,-3.43 1,-6.14 1.8,-7.61 0.8,-1.47 1.3,-1.95 1.4,-1.99 m 28.2,28.28 c 2,-1.92 3.9,-4.15 5.6,-7.27 1.6,-3.12 3.1,-7.37 3,-12.23 -0.1,-4.86 -2,-9.83 -4.4,-13.24 -2.5,-3.4 -5.2,-5.49 -7.6,-7.01 -4.8,-3.03 -8.9,-4.17 -13.2,-5.18 -4.3,-1.02 -8.7,-1.68 -13.4,-2.21 -9.5,-1.06 -20.43,-1.52 -32.21,-1.76 -11.78,-0.24 -24.39,-0.24 -36.89,-0.24" />
    <marker id="MyArrow" overflow="visible" orient="auto">
      <path d="m -5,-5 15,5 -15,5 z"/>
    </marker>
  </defs>

  <use xlink:href="#MyPath_Stroke" style="fill:gray"/>
  <use xlink:href="#MyPath" style="fill:none;stroke:red;stroke-width:1"/>
  <use xlink:href="#MyPath_Offset" style="fill:none;stroke:blue;stroke-width:0.5"/>
</svg>
